<svg width="29" height="16" viewBox="0 0 29 16" fill="none" xmlns="http://www.w3.org/2000/svg">
<path d="M3.2223 15.3104C4.84162 15.3104 6.15732 13.9947 6.16407 12.3821V10.8168H8.87642V12.3821C8.86968 13.9947 10.1854 15.3104 11.8047 15.3104C13.4173 15.3104 14.733 13.9947 14.733 12.3821C14.733 10.7628 13.4173 9.44709 11.8047 9.44034H10.2528V6.72798H11.8047C13.4173 6.73473 14.733 5.41903 14.733 3.79971C14.733 2.18714 13.4173 0.871445 11.8047 0.871445C10.1854 0.871445 8.86968 2.18714 8.87642 3.79971V5.35156H6.16407V3.79971C6.15732 2.18714 4.84162 0.871445 3.2223 0.871445C1.60973 0.871445 0.294037 2.18714 0.294037 3.79971C0.294037 5.41903 1.60973 6.73473 3.2223 6.72798H4.78765V9.44034H3.2223C1.60973 9.44709 0.294037 10.7628 0.294037 12.3821C0.294037 13.9947 1.60973 15.3104 3.2223 15.3104ZM3.2223 13.9339C2.36541 13.9339 1.67046 13.239 1.67046 12.3821C1.67046 11.5185 2.36541 10.8235 3.2223 10.8168H4.78765V12.3821C4.7809 13.239 4.08594 13.9339 3.2223 13.9339ZM3.2223 5.35156C2.36541 5.35831 1.67046 4.66335 1.67046 3.79971C1.67046 2.94282 2.36541 2.24787 3.2223 2.24787C4.08594 2.24787 4.7809 2.94282 4.78765 3.79971V5.35156H3.2223ZM11.8047 13.9339C10.9411 13.9339 10.2461 13.239 10.2528 12.3821V10.8168H11.8047C12.6616 10.8235 13.3565 11.5185 13.3565 12.3821C13.3565 13.239 12.6616 13.9339 11.8047 13.9339ZM10.2528 5.35156V3.79971C10.2461 2.94282 10.9411 2.24787 11.8047 2.24787C12.6616 2.24787 13.3565 2.94282 13.3565 3.79971C13.3565 4.66335 12.6616 5.35831 11.8047 5.35156H10.2528ZM6.16407 9.44034V6.72798H8.87642V9.44034H6.16407Z" fill="white"/>
<path d="M18.6919 15H20.3651V10.5199L22.0924 8.5767L26.8964 15H28.9205L23.118 7.41619L28.9205 1.18181H26.7345L20.5271 8.03693H20.3651V1.18181H18.6919V15Z" fill="white"/>
</svg>

